# xmcd
#
# Track frame offsets: 
#        150
#        23965
#        42087
#        63467
#        88715
#
# Disc length: 1385 seconds
#
# Revision: 0
# Processed by: cddbd v1.5.2PL0 Copyright (c) Steve Scherf et al.
# Submitted via: ExactAudioCopyFreeDBPlugin 1.0
#
DISCID=39056705
DTITLE=Hamish Anderson - Hamish Anderson
DYEAR=2013
DGENRE=Blues Rock
TTITLE0=Howl
TTITLE1=Smoke and Mirrors
TTITLE2=Sad and  Blue
TTITLE3=Empty Thoughts
TTITLE4=Winter
EXTD=
EXTT0=
EXTT1=
EXTT2=
EXTT3=
EXTT4=
PLAYORDER=
